<svg width="15" height="15" viewBox="0 0 15 15" fill="none" xmlns="http://www.w3.org/2000/svg">
<path d="M2.5 2.5H4.375L5.625 1.25H9.375L10.625 2.5H12.5C12.8315 2.5 13.1495 2.6317 13.3839 2.86612C13.6183 3.10054 13.75 3.41848 13.75 3.75V11.25C13.75 11.5815 13.6183 11.8995 13.3839 12.1339C13.1495 12.3683 12.8315 12.5 12.5 12.5H2.5C2.16848 12.5 1.85054 12.3683 1.61612 12.1339C1.3817 11.8995 1.25 11.5815 1.25 11.25V3.75C1.25 3.41848 1.3817 3.10054 1.61612 2.86612C1.85054 2.6317 2.16848 2.5 2.5 2.5ZM7.5 4.375C6.6712 4.375 5.87634 4.70424 5.29029 5.29029C4.70424 5.87634 4.375 6.6712 4.375 7.5C4.375 8.3288 4.70424 9.12366 5.29029 9.70971C5.87634 10.2958 6.6712 10.625 7.5 10.625C8.3288 10.625 9.12366 10.2958 9.70971 9.70971C10.2958 9.12366 10.625 8.3288 10.625 7.5C10.625 6.6712 10.2958 5.87634 9.70971 5.29029C9.12366 4.70424 8.3288 4.375 7.5 4.375ZM7.5 5.625C7.99728 5.625 8.47419 5.82254 8.82583 6.17417C9.17746 6.52581 9.375 7.00272 9.375 7.5C9.375 7.99728 9.17746 8.47419 8.82583 8.82583C8.47419 9.17746 7.99728 9.375 7.5 9.375C7.00272 9.375 6.52581 9.17746 6.17417 8.82583C5.82254 8.47419 5.625 7.99728 5.625 7.5C5.625 7.00272 5.82254 6.52581 6.17417 6.17417C6.52581 5.82254 7.00272 5.625 7.5 5.625Z" fill="black"/>
</svg>
