<svg width="12" height="12" viewBox="0 0 12 12" fill="none" xmlns="http://www.w3.org/2000/svg">
<path d="M2.5 1H6C6.4 1 6.78 1.16 7.06 1.44C7.34 1.72 7.5 2.1 7.5 2.5V3H6.5V2H2V5.5H4.5V8H4L2.5 9.5H2V8.5L2.5 8C2.1 8 1.72 7.84 1.44 7.56C1.16 7.28 1 6.9 1 6.5V2.5C1 2.1 1.16 1.72 1.44 1.44C1.72 1.16 2.1 1 2.5 1ZM2.855 6.145C2.75 6.055 2.635 6 2.5 6C2.37 6 2.25 6.055 2.145 6.145C2.055 6.25 2 6.37 2 6.5C2 6.635 2.055 6.75 2.145 6.855C2.25 6.95 2.37 7 2.5 7C2.635 7 2.75 6.95 2.855 6.855C2.95 6.75 3 6.635 3 6.5C3 6.37 2.95 6.25 2.855 6.145ZM5.5 5.5C5.5 4.67 6 4 7.5 4H9C10.5 4 11 4.67 11 5.5V9C11 9.37 10.8 9.695 10.5 9.865V10.5C10.5 10.775 10.275 11 10 11C9.725 11 9.5 10.775 9.5 10.5V10H7V10.5C7 10.775 6.775 11 6.5 11C6.225 11 6 10.775 6 10.5V9.865C5.7 9.695 5.5 9.37 5.5 9V5.5ZM6.5 5V7H10V5H6.5ZM7 9C7.275 9 7.5 8.775 7.5 8.5C7.5 8.225 7.275 8 7 8C6.725 8 6.5 8.225 6.5 8.5C6.5 8.775 6.725 9 7 9ZM10 8.5C10 8.225 9.775 8 9.5 8C9.225 8 9 8.225 9 8.5C9 8.775 9.225 9 9.5 9C9.775 9 10 8.775 10 8.5Z" fill="black"/>
</svg>
