<svg width="42" height="6" viewBox="0 0 42 6" fill="none" xmlns="http://www.w3.org/2000/svg">
<g clip-path="url(#clip0_34_628)">
<path d="M2.75004 3.52692L1.88837 4.04712L2.11525 3.06629L1.35442 2.40629L2.35817 2.3215L2.75004 1.39567L3.14192 2.3215L4.14567 2.40629L3.38483 3.06629L3.61171 4.04712M5.04171 2.11754L3.394 1.97775L2.75004 0.458374L2.10608 1.97775L0.458374 2.11754L1.70733 3.2015L1.33379 4.81254L2.75004 3.95775L4.16629 4.81254L3.79046 3.2015L5.04171 2.11754Z" fill="black"/>
</g>
<g clip-path="url(#clip1_34_628)">
<path d="M11.75 3.52692L10.8884 4.04712L11.1152 3.06629L10.3544 2.40629L11.3582 2.3215L11.75 1.39567L12.1419 2.3215L13.1457 2.40629L12.3848 3.06629L12.6117 4.04712M14.0417 2.11754L12.394 1.97775L11.75 0.458374L11.1061 1.97775L9.45837 2.11754L10.7073 3.2015L10.3338 4.81254L11.75 3.95775L13.1663 4.81254L12.7905 3.2015L14.0417 2.11754Z" fill="black"/>
<g clip-path="url(#clip2_34_628)">
<path d="M11.75 3.52692L10.8884 4.04712L11.1152 3.06629L10.3544 2.40629L11.3582 2.3215L11.75 1.39567L12.1419 2.3215L13.1457 2.40629L12.3848 3.06629L12.6117 4.04712M14.0417 2.11754L12.394 1.97775L11.75 0.458374L11.1061 1.97775L9.45837 2.11754L10.7073 3.2015L10.3338 4.81254L11.75 3.95775L13.1663 4.81254L12.7905 3.2015L14.0417 2.11754Z" fill="black"/>
</g>
</g>
<path d="M21 3.52692L20.06 4.04712L20.3075 3.06629L19.4775 2.40629L20.5725 2.3215L21 1.39567L21.4275 2.3215L22.5225 2.40629L21.6925 3.06629L21.94 4.04712M23.5 2.11754L21.7025 1.97775L21 0.458374L20.2975 1.97775L18.5 2.11754L19.8625 3.2015L19.455 4.81254L21 3.95775L22.545 4.81254L22.135 3.2015L23.5 2.11754Z" fill="black"/>
<g clip-path="url(#clip3_34_628)">
<path d="M30.25 3.52692L29.3884 4.04712L29.6152 3.06629L28.8544 2.40629L29.8582 2.3215L30.25 1.39567L30.6419 2.3215L31.6457 2.40629L30.8848 3.06629L31.1117 4.04712M32.5417 2.11754L30.894 1.97775L30.25 0.458374L29.6061 1.97775L27.9584 2.11754L29.2073 3.2015L28.8338 4.81254L30.25 3.95775L31.6663 4.81254L31.2905 3.2015L32.5417 2.11754Z" fill="black"/>
<g clip-path="url(#clip4_34_628)">
<path d="M30.25 3.52692L29.3884 4.04712L29.6152 3.06629L28.8544 2.40629L29.8582 2.3215L30.25 1.39567L30.6419 2.3215L31.6457 2.40629L30.8848 3.06629L31.1117 4.04712M32.5417 2.11754L30.894 1.97775L30.25 0.458374L29.6061 1.97775L27.9584 2.11754L29.2073 3.2015L28.8338 4.81254L30.25 3.95775L31.6663 4.81254L31.2905 3.2015L32.5417 2.11754Z" fill="black"/>
</g>
</g>
<g clip-path="url(#clip5_34_628)">
<path d="M39.25 3.52692L38.3884 4.04712L38.6152 3.06629L37.8544 2.40629L38.8582 2.3215L39.25 1.39567L39.6419 2.3215L40.6457 2.40629L39.8848 3.06629L40.1117 4.04712M41.5417 2.11754L39.894 1.97775L39.25 0.458374L38.6061 1.97775L36.9584 2.11754L38.2073 3.2015L37.8338 4.81254L39.25 3.95775L40.6663 4.81254L40.2905 3.2015L41.5417 2.11754Z" fill="black"/>
<g clip-path="url(#clip6_34_628)">
<path d="M39.25 3.52692L38.3884 4.04712L38.6152 3.06629L37.8544 2.40629L38.8582 2.3215L39.25 1.39567L39.6419 2.3215L40.6457 2.40629L39.8848 3.06629L40.1117 4.04712M41.5417 2.11754L39.894 1.97775L39.25 0.458374L38.6061 1.97775L36.9584 2.11754L38.2073 3.2015L37.8338 4.81254L39.25 3.95775L40.6663 4.81254L40.2905 3.2015L41.5417 2.11754Z" fill="black"/>
</g>
</g>
<defs>
<clipPath id="clip0_34_628">
<rect width="5.5" height="5.5" fill="white"/>
</clipPath>
<clipPath id="clip1_34_628">
<rect width="5.5" height="5.5" fill="white" transform="translate(9)"/>
</clipPath>
<clipPath id="clip2_34_628">
<rect width="5.5" height="5.5" fill="white" transform="translate(9)"/>
</clipPath>
<clipPath id="clip3_34_628">
<rect width="5.5" height="5.5" fill="white" transform="translate(27.5)"/>
</clipPath>
<clipPath id="clip4_34_628">
<rect width="5.5" height="5.5" fill="white" transform="translate(27.5)"/>
</clipPath>
<clipPath id="clip5_34_628">
<rect width="5.5" height="5.5" fill="white" transform="translate(36.5)"/>
</clipPath>
<clipPath id="clip6_34_628">
<rect width="5.5" height="5.5" fill="white" transform="translate(36.5)"/>
</clipPath>
</defs>
</svg>
