<svg width="12" height="7" viewBox="0 0 12 7" fill="none" xmlns="http://www.w3.org/2000/svg">
<path d="M6.5 3C6.79667 3 7.08668 2.91203 7.33336 2.7472C7.58003 2.58238 7.77229 2.34811 7.88582 2.07403C7.99935 1.79994 8.02906 1.49834 7.97118 1.20737C7.9133 0.916394 7.77044 0.649119 7.56066 0.43934C7.35088 0.229562 7.08361 0.0867006 6.79264 0.0288228C6.50166 -0.0290551 6.20006 0.000649929 5.92597 0.114181C5.65189 0.227713 5.41762 0.419971 5.2528 0.666645C5.08797 0.913319 5 1.20333 5 1.5C5 1.89783 5.15804 2.27936 5.43934 2.56066C5.72064 2.84197 6.10218 3 6.5 3ZM6.5 1C6.59889 1 6.69556 1.02933 6.77779 1.08427C6.86001 1.13921 6.9241 1.2173 6.96194 1.30866C6.99978 1.40002 7.00969 1.50056 6.99039 1.59755C6.9711 1.69454 6.92348 1.78363 6.85355 1.85355C6.78363 1.92348 6.69454 1.9711 6.59755 1.99039C6.50055 2.00969 6.40002 1.99978 6.30866 1.96194C6.2173 1.9241 6.13921 1.86001 6.08427 1.77779C6.02932 1.69556 6 1.59889 6 1.5C6 1.36739 6.05268 1.24022 6.14645 1.14645C6.24021 1.05268 6.36739 1 6.5 1ZM8.555 2.93C8.84753 2.51052 9.00437 2.01141 9.00437 1.5C9.00437 0.988592 8.84753 0.489485 8.555 0.0700005C8.6988 0.0237072 8.84893 9.09774e-05 9 5.70751e-07C9.39782 5.70751e-07 9.77936 0.158036 10.0607 0.43934C10.342 0.720645 10.5 1.10218 10.5 1.5C10.5 1.89783 10.342 2.27936 10.0607 2.56066C9.77936 2.84197 9.39782 3 9 3C8.84893 2.99991 8.6988 2.97629 8.555 2.93ZM6.5 4C3.5 4 3.5 6 3.5 6V7H9.5V6C9.5 6 9.5 4 6.5 4ZM4.5 6C4.5 5.855 4.66 5 6.5 5C8.25 5 8.47 5.78 8.5 6M12 6V7H10.5V6C10.4883 5.62832 10.4027 5.26269 10.2482 4.92446C10.0937 4.58622 9.87332 4.28215 9.6 4.03C12 4.275 12 6 12 6ZM4 3.5H2.5V5H1.5V3.5H0V2.5H1.5V1H2.5V2.5H4V3.5Z" fill="black"/>
</svg>
