<svg width="54" height="54" viewBox="0 0 54 54" fill="none" xmlns="http://www.w3.org/2000/svg">
<path d="M27 0C30.5804 0 34.0142 1.42232 36.5459 3.95405C39.0777 6.48579 40.5 9.91957 40.5 13.5C40.5 17.0804 39.0777 20.5142 36.5459 23.0459C34.0142 25.5777 30.5804 27 27 27C23.4196 27 19.9858 25.5777 17.454 23.0459C14.9223 20.5142 13.5 17.0804 13.5 13.5C13.5 9.91957 14.9223 6.48579 17.454 3.95405C19.9858 1.42232 23.4196 0 27 0ZM27 6.74999C25.2098 6.74999 23.4929 7.46115 22.227 8.72702C20.9611 9.99289 20.25 11.7098 20.25 13.5C20.25 15.2902 20.9611 17.0071 22.227 18.273C23.4929 19.5388 25.2098 20.25 27 20.25C28.7902 20.25 30.5071 19.5388 31.7729 18.273C33.0388 17.0071 33.75 15.2902 33.75 13.5C33.75 11.7098 33.0388 9.99289 31.7729 8.72702C30.5071 7.46115 28.7902 6.74999 27 6.74999ZM27 30.375C36.0112 30.375 54 34.8637 54 43.875V54H0V43.875C0 34.8637 17.9887 30.375 27 30.375ZM27 36.7875C16.9762 36.7875 6.4125 41.715 6.4125 43.875V47.5875H47.5875V43.875C47.5875 41.715 37.0237 36.7875 27 36.7875Z" fill="#1F72BB"/>
</svg>
