<svg width="84" height="11" viewBox="0 0 84 11" fill="none" xmlns="http://www.w3.org/2000/svg">
<path d="M5.50008 7.05371L3.77675 8.09413L4.2305 6.13246L2.70883 4.81246L4.71633 4.64288L5.50008 2.79121L6.28383 4.64288L8.29133 4.81246L6.76967 6.13246L7.22341 8.09413M10.0834 4.23496L6.788 3.95538L5.50008 0.916626L4.21216 3.95538L0.916748 4.23496L3.41466 6.40288L2.66758 9.62496L5.50008 7.91538L8.33258 9.62496L7.58092 6.40288L10.0834 4.23496Z" fill="black"/>
<g clip-path="url(#clip0_34_627)">
<path d="M23.5001 7.05371L21.7767 8.09413L22.2305 6.13246L20.7088 4.81246L22.7163 4.64288L23.5001 2.79121L24.2838 4.64288L26.2913 4.81246L24.7697 6.13246L25.2234 8.09413M28.0834 4.23496L24.788 3.95538L23.5001 0.916626L22.2122 3.95538L18.9167 4.23496L21.4147 6.40288L20.6676 9.62496L23.5001 7.91538L26.3326 9.62496L25.5809 6.40288L28.0834 4.23496Z" fill="black"/>
<path d="M23.5001 7.05371L21.7767 8.09413L22.2305 6.13246L20.7088 4.81246L22.7163 4.64288L23.5001 2.79121L24.2838 4.64288L26.2913 4.81246L24.7697 6.13246L25.2234 8.09413M28.0834 4.23496L24.788 3.95538L23.5001 0.916626L22.2122 3.95538L18.9167 4.23496L21.4147 6.40288L20.6676 9.62496L23.5001 7.91538L26.3326 9.62496L25.5809 6.40288L28.0834 4.23496Z" fill="black"/>
</g>
<path d="M42 7.05371L40.12 8.09413L40.615 6.13246L38.955 4.81246L41.145 4.64288L42 2.79121L42.855 4.64288L45.045 4.81246L43.385 6.13246L43.88 8.09413M47 4.23496L43.405 3.95538L42 0.916626L40.595 3.95538L37 4.23496L39.725 6.40288L38.91 9.62496L42 7.91538L45.09 9.62496L44.27 6.40288L47 4.23496Z" fill="black"/>
<g clip-path="url(#clip1_34_627)">
<path d="M60.4998 7.05371L58.7765 8.09413L59.2303 6.13246L57.7086 4.81246L59.7161 4.64288L60.4998 2.79121L61.2836 4.64288L63.2911 4.81246L61.7694 6.13246L62.2232 8.09413M65.0832 4.23496L61.7878 3.95538L60.4998 0.916626L59.2119 3.95538L55.9165 4.23496L58.4144 6.40288L57.6673 9.62496L60.4998 7.91538L63.3323 9.62496L62.5807 6.40288L65.0832 4.23496Z" fill="black"/>
<path d="M60.4998 7.05371L58.7765 8.09413L59.2303 6.13246L57.7086 4.81246L59.7161 4.64288L60.4998 2.79121L61.2836 4.64288L63.2911 4.81246L61.7694 6.13246L62.2232 8.09413M65.0832 4.23496L61.7878 3.95538L60.4998 0.916626L59.2119 3.95538L55.9165 4.23496L58.4144 6.40288L57.6673 9.62496L60.4998 7.91538L63.3323 9.62496L62.5807 6.40288L65.0832 4.23496Z" fill="black"/>
</g>
<g clip-path="url(#clip2_34_627)">
<path d="M78.4998 7.05371L76.7765 8.09413L77.2303 6.13246L75.7086 4.81246L77.7161 4.64288L78.4998 2.79121L79.2836 4.64288L81.2911 4.81246L79.7694 6.13246L80.2232 8.09413M83.0832 4.23496L79.7878 3.95538L78.4998 0.916626L77.2119 3.95538L73.9165 4.23496L76.4144 6.40288L75.6673 9.62496L78.4998 7.91538L81.3323 9.62496L80.5807 6.40288L83.0832 4.23496Z" fill="black"/>
<path d="M78.4998 7.05371L76.7765 8.09413L77.2303 6.13246L75.7086 4.81246L77.7161 4.64288L78.4998 2.79121L79.2836 4.64288L81.2911 4.81246L79.7694 6.13246L80.2232 8.09413M83.0832 4.23496L79.7878 3.95538L78.4998 0.916626L77.2119 3.95538L73.9165 4.23496L76.4144 6.40288L75.6673 9.62496L78.4998 7.91538L81.3323 9.62496L80.5807 6.40288L83.0832 4.23496Z" fill="black"/>
</g>
<defs>
<clipPath id="clip0_34_627">
<rect width="11" height="11" fill="white" transform="translate(18)"/>
</clipPath>
<clipPath id="clip1_34_627">
<rect width="11" height="11" fill="white" transform="translate(55)"/>
</clipPath>
<clipPath id="clip2_34_627">
<rect width="11" height="11" fill="white" transform="translate(73)"/>
</clipPath>
</defs>
</svg>
